<svg width="93" height="117" viewBox="0 0 113 137" fill="none" xmlns="http://www.w3.org/2000/svg">
<path d="M109.11 91.8149C105.326 90.1853 102.103 87.4693 99.8428 84.006C97.5828 80.5427 96.3862 76.4857 96.4025 72.3418C96.4515 68.6427 97.4354 65.0172 99.2614 61.8071C101.087 58.597 103.695 55.9081 106.839 53.994C107.551 53.5514 108.165 52.9681 108.646 52.2795C109.128 51.5908 109.465 50.8111 109.638 49.9874C109.812 49.1638 109.817 48.3133 109.655 47.4873C109.492 46.6614 109.165 45.8772 108.693 45.1822C105.867 41.0438 102.183 37.5723 97.8944 35.0073C93.6061 32.4423 88.8161 30.8448 83.855 30.3252C88.4725 22.9466 90.568 14.2503 89.8222 5.56138C89.6766 3.98361 88.9297 2.52397 87.7383 1.48874C86.5469 0.453505 85.0036 -0.076834 83.4322 0.00900694C72.8127 0.962039 62.9684 6.00536 55.9513 14.0876C51.5032 19.2774 48.3643 25.4713 46.8011 32.1434C43.5716 31.043 40.1904 30.4602 36.7812 30.4163C30.4696 30.5965 24.3113 32.4156 18.9034 35.6973C13.4955 38.979 9.02149 43.612 5.91508 49.1471C-5.75977 69.5565 1.38226 100.14 14.0294 118.549C19.1028 125.926 26.7159 137 38.2004 137C38.4269 137 38.6564 137 38.886 136.988C42.7339 136.768 46.5011 135.786 49.9719 134.099C52.7442 132.684 55.8028 131.931 58.9108 131.897C61.8334 131.933 64.7077 132.654 67.306 134.002C71.1026 135.81 75.2402 136.779 79.4398 136.842C91.2717 136.617 98.2599 126.339 103.363 118.828C107.39 112.862 110.541 106.343 112.719 99.4709C113.183 97.9717 113.069 96.3514 112.401 94.9327C111.732 93.5139 110.557 92.4008 109.11 91.8149V91.8149ZM65.316 22.2186C68.5643 18.56 72.6345 15.7367 77.1871 13.9843C76.191 18.9179 73.9873 23.523 70.7759 27.3818C68.596 30.0152 65.9438 32.2124 62.9575 33.8588L62.9394 33.865C62.7642 33.938 62.5891 34.0049 62.4137 34.0779C61.2601 34.534 59.8346 35.0995 58.7355 35.4644C59.797 30.5654 62.0592 26.0119 65.316 22.2186V22.2186ZM93.1561 111.799C88.1854 119.109 84.2749 124.296 79.2134 124.387C76.7668 124.38 74.3611 123.754 72.2163 122.569C68.0703 120.535 63.5228 119.466 58.9108 119.443C54.1386 119.467 49.4311 120.557 45.1281 122.635C43.036 123.711 40.7537 124.36 38.4119 124.545H38.2277C33.1996 124.545 27.791 116.682 24.2004 111.458C15.2163 98.3826 6.92974 72.3296 16.6356 55.3623C18.6709 51.6906 21.6142 48.6111 25.18 46.4225C28.7457 44.2339 32.8128 43.0106 36.9865 42.8713L37.1949 42.8651C40.7157 43.1664 44.1539 44.1037 47.3447 45.6322C48.1571 45.9544 48.9573 46.2768 49.7515 46.5748C49.9538 46.6599 50.1622 46.739 50.3736 46.8059C52.5745 47.6972 54.9124 48.1972 57.2831 48.2837C60.6398 48.0151 63.9187 47.1266 66.956 45.6626C71.2373 43.5703 75.9437 42.5105 80.7024 42.5671C85.7925 42.7676 90.6789 44.6337 94.621 47.8823C91.2521 51.0077 88.5698 54.8081 86.7464 59.0393C84.923 63.2706 83.9989 67.8391 84.0333 72.4514V72.4577C83.9983 78.0413 85.3707 83.5426 88.022 88.4469C90.6733 93.3511 94.5169 97.4979 99.1931 100.499C97.5647 104.461 95.5421 108.247 93.1561 111.799V111.799Z" fill="#61DAFB"/>
</svg>
